<mxfile host="app.diagrams.net" agent="Mozilla/5.0 (Windows NT 10.0; Win64; x64) AppleWebKit/537.36 (KHTML, like Gecko) Chrome/129.0.0.0 Safari/537.36" version="24.7.17">
  <diagram name="Page-1" id="aWbCx65DPefnnPEab3dw">
    <mxGraphModel dx="1434" dy="905" grid="1" gridSize="10" guides="1" tooltips="1" connect="1" arrows="1" fold="1" page="1" pageScale="1" pageWidth="850" pageHeight="1100" math="0" shadow="0">
      <root>
        <mxCell id="0" />
        <mxCell id="1" parent="0" />
        <mxCell id="adn1gvlPgBII5tQaNRbf-3" value="Docker" style="rounded=1;whiteSpace=wrap;html=1;fontSize=20;fontStyle=1" vertex="1" parent="1">
          <mxGeometry x="180" y="390" width="580" height="60" as="geometry" />
        </mxCell>
        <mxCell id="adn1gvlPgBII5tQaNRbf-4" value="OS Kernel" style="rounded=1;whiteSpace=wrap;html=1;fontSize=20;fontStyle=1" vertex="1" parent="1">
          <mxGeometry x="180" y="460" width="580" height="60" as="geometry" />
        </mxCell>
        <mxCell id="adn1gvlPgBII5tQaNRbf-5" value="Hardware Infrastructure" style="rounded=1;whiteSpace=wrap;html=1;fontSize=20;fontStyle=1" vertex="1" parent="1">
          <mxGeometry x="180" y="530" width="580" height="60" as="geometry" />
        </mxCell>
        <mxCell id="adn1gvlPgBII5tQaNRbf-10" value="" style="rounded=0;whiteSpace=wrap;html=1;" vertex="1" parent="1">
          <mxGeometry x="180" y="90" width="580" height="290" as="geometry" />
        </mxCell>
        <mxCell id="adn1gvlPgBII5tQaNRbf-20" style="edgeStyle=orthogonalEdgeStyle;rounded=0;orthogonalLoop=1;jettySize=auto;html=1;exitX=0.5;exitY=0;exitDx=0;exitDy=0;" edge="1" parent="1" source="adn1gvlPgBII5tQaNRbf-11">
          <mxGeometry relative="1" as="geometry">
            <mxPoint x="470" y="60" as="targetPoint" />
          </mxGeometry>
        </mxCell>
        <mxCell id="adn1gvlPgBII5tQaNRbf-11" value="Docker Container 1" style="rounded=1;whiteSpace=wrap;html=1;fontSize=18;" vertex="1" parent="1">
          <mxGeometry x="210" y="120" width="250" height="220" as="geometry" />
        </mxCell>
        <mxCell id="adn1gvlPgBII5tQaNRbf-23" style="edgeStyle=orthogonalEdgeStyle;rounded=0;orthogonalLoop=1;jettySize=auto;html=1;exitX=0.5;exitY=0;exitDx=0;exitDy=0;" edge="1" parent="1" source="adn1gvlPgBII5tQaNRbf-12">
          <mxGeometry relative="1" as="geometry">
            <mxPoint x="470" y="60" as="targetPoint" />
          </mxGeometry>
        </mxCell>
        <mxCell id="adn1gvlPgBII5tQaNRbf-12" value="Docker Container 2" style="rounded=1;whiteSpace=wrap;html=1;fontSize=18;" vertex="1" parent="1">
          <mxGeometry x="480" y="120" width="250" height="220" as="geometry" />
        </mxCell>
        <mxCell id="adn1gvlPgBII5tQaNRbf-21" style="edgeStyle=orthogonalEdgeStyle;rounded=0;orthogonalLoop=1;jettySize=auto;html=1;exitX=0.5;exitY=0;exitDx=0;exitDy=0;" edge="1" parent="1" source="adn1gvlPgBII5tQaNRbf-14">
          <mxGeometry relative="1" as="geometry">
            <mxPoint x="335" y="120" as="targetPoint" />
          </mxGeometry>
        </mxCell>
        <mxCell id="adn1gvlPgBII5tQaNRbf-14" value="Web App (172.17.XX.XX)" style="rounded=1;whiteSpace=wrap;html=1;fontSize=17;fontStyle=1" vertex="1" parent="1">
          <mxGeometry x="230" y="150" width="210" height="60" as="geometry" />
        </mxCell>
        <mxCell id="adn1gvlPgBII5tQaNRbf-15" value="Libs + Deps" style="rounded=1;whiteSpace=wrap;html=1;fontSize=18;" vertex="1" parent="1">
          <mxGeometry x="230" y="250" width="210" height="60" as="geometry" />
        </mxCell>
        <mxCell id="adn1gvlPgBII5tQaNRbf-24" style="edgeStyle=orthogonalEdgeStyle;rounded=0;orthogonalLoop=1;jettySize=auto;html=1;exitX=0.5;exitY=0;exitDx=0;exitDy=0;entryX=0.5;entryY=0;entryDx=0;entryDy=0;" edge="1" parent="1" source="adn1gvlPgBII5tQaNRbf-16" target="adn1gvlPgBII5tQaNRbf-12">
          <mxGeometry relative="1" as="geometry" />
        </mxCell>
        <mxCell id="adn1gvlPgBII5tQaNRbf-16" value="Models + Database" style="rounded=1;whiteSpace=wrap;html=1;fontSize=18;fontStyle=1" vertex="1" parent="1">
          <mxGeometry x="500" y="150" width="210" height="60" as="geometry" />
        </mxCell>
        <mxCell id="adn1gvlPgBII5tQaNRbf-17" value="Lids + Deps" style="rounded=1;whiteSpace=wrap;html=1;fontSize=18;" vertex="1" parent="1">
          <mxGeometry x="500" y="250" width="210" height="60" as="geometry" />
        </mxCell>
        <mxCell id="adn1gvlPgBII5tQaNRbf-25" value="User (192.168.X.X:5000)" style="text;html=1;align=center;verticalAlign=middle;whiteSpace=wrap;rounded=0;fontSize=16;fontStyle=1" vertex="1" parent="1">
          <mxGeometry x="370" y="20" width="200" height="30" as="geometry" />
        </mxCell>
        <mxCell id="adn1gvlPgBII5tQaNRbf-27" value="Docker Host" style="text;html=1;align=center;verticalAlign=middle;whiteSpace=wrap;rounded=0;fontSize=18;fontStyle=1" vertex="1" parent="1">
          <mxGeometry x="385" y="350" width="170" height="30" as="geometry" />
        </mxCell>
      </root>
    </mxGraphModel>
  </diagram>
</mxfile>
